<svg width="18" height="18" viewBox="0 0 18 18" fill="none" xmlns="http://www.w3.org/2000/svg">
<path fill-rule="evenodd" clip-rule="evenodd" d="M8.99999 17.3334C4.39999 17.3334 0.666656 13.6084 0.666656 9.00008C0.666656 4.40008 4.39999 0.666748 8.99999 0.666748C13.6083 0.666748 17.3333 4.40008 17.3333 9.00008C17.3333 13.6084 13.6083 17.3334 8.99999 17.3334ZM11.6583 12.0917C11.7583 12.1501 11.8667 12.1834 11.9833 12.1834C12.1917 12.1834 12.4 12.0751 12.5167 11.8751C12.6917 11.5834 12.6 11.2001 12.3 11.0167L9.33332 9.25005V5.40005C9.33332 5.05005 9.04999 4.77505 8.70832 4.77505C8.36666 4.77505 8.08332 5.05005 8.08332 5.40005V9.60839C8.08332 9.82505 8.19999 10.0251 8.39166 10.1417L11.6583 12.0917Z" fill="#F77E53"/>
</svg>
